<?xml version="1.0" encoding="UTF-8" standalone="no"?>
<!DOCTYPE svg PUBLIC "-//W3C//DTD SVG 1.1//EN"
 "http://www.w3.org/Graphics/SVG/1.1/DTD/svg11.dtd">
<!-- Generated by graphviz version 2.43.0 (0)
 -->
<!-- Title: ImplicationGraph Pages: 1 -->
<svg width="353pt" height="98pt"
 viewBox="0.00 0.00 352.98 98.00" xmlns="http://www.w3.org/2000/svg" xmlns:xlink="http://www.w3.org/1999/xlink">
<g id="graph0" class="graph" transform="scale(1 1) rotate(0) translate(4 94)">
<title>ImplicationGraph</title>
<polygon fill="white" stroke="transparent" points="-4,4 -4,-94 348.98,-94 348.98,4 -4,4"/>
<!-- n1 -->
<g id="node1" class="node">
<title>n1</title>
<ellipse fill="none" stroke="black" cx="31.85" cy="-72" rx="31.7" ry="18"/>
<text text-anchor="middle" x="31.85" y="-68.3" font-family="Times,serif" font-size="14.00">1@1</text>
</g>
<!-- n3 -->
<g id="node3" class="node">
<title>n3</title>
<ellipse fill="none" stroke="black" cx="166.14" cy="-72" rx="31.7" ry="18"/>
<text text-anchor="middle" x="166.14" y="-68.3" font-family="Times,serif" font-size="14.00">3@1</text>
</g>
<!-- n1&#45;&gt;n3 -->
<g id="edge1" class="edge">
<title>n1&#45;&gt;n3</title>
<path fill="none" stroke="black" d="M63.86,-72C81.73,-72 104.42,-72 123.79,-72"/>
<polygon fill="black" stroke="black" points="123.86,-75.5 133.86,-72 123.86,-68.5 123.86,-75.5"/>
<text text-anchor="middle" x="97.69" y="-75.8" font-family="Times,serif" font-size="14.00">3 &#45;4</text>
</g>
<!-- n2 -->
<g id="node2" class="node">
<title>n2</title>
<ellipse fill="none" stroke="black" cx="31.85" cy="-18" rx="31.7" ry="18"/>
<text text-anchor="middle" x="31.85" y="-14.3" font-family="Times,serif" font-size="14.00">2@2</text>
</g>
<!-- n4 -->
<g id="node4" class="node">
<title>n4</title>
<ellipse fill="none" stroke="black" cx="166.14" cy="-18" rx="34.39" ry="18"/>
<text text-anchor="middle" x="166.14" y="-14.3" font-family="Times,serif" font-size="14.00">&#45;4@2</text>
</g>
<!-- n2&#45;&gt;n4 -->
<g id="edge2" class="edge">
<title>n2&#45;&gt;n4</title>
<path fill="none" stroke="black" d="M63.86,-18C81,-18 102.58,-18 121.41,-18"/>
<polygon fill="black" stroke="black" points="121.54,-21.5 131.54,-18 121.54,-14.5 121.54,-21.5"/>
<text text-anchor="middle" x="97.69" y="-21.8" font-family="Times,serif" font-size="14.00">&#45;2 &#45;4</text>
</g>
<!-- nk -->
<g id="node5" class="node">
<title>nk</title>
<ellipse fill="none" stroke="black" cx="313.79" cy="-45" rx="31.4" ry="18"/>
<text text-anchor="middle" x="313.79" y="-41.3" font-family="Times,serif" font-size="14.00">k@2</text>
</g>
<!-- n3&#45;&gt;nk -->
<g id="edge3" class="edge">
<title>n3&#45;&gt;nk</title>
<path fill="none" stroke="black" d="M196.61,-66.54C218.87,-62.41 249.62,-56.71 273.89,-52.21"/>
<polygon fill="black" stroke="black" points="274.66,-55.63 283.85,-50.36 273.38,-48.75 274.66,-55.63"/>
<text text-anchor="middle" x="241.59" y="-64.8" font-family="Times,serif" font-size="14.00">&#45;2 &#45;3 4</text>
</g>
<!-- n4&#45;&gt;nk -->
<g id="edge4" class="edge">
<title>n4&#45;&gt;nk</title>
<path fill="none" stroke="black" d="M199.23,-23.33C218.25,-26.56 242.83,-30.85 264.59,-35 267.78,-35.61 271.08,-36.26 274.4,-36.92"/>
<polygon fill="black" stroke="black" points="273.77,-40.37 284.27,-38.93 275.17,-33.51 273.77,-40.37"/>
<text text-anchor="middle" x="241.59" y="-38.8" font-family="Times,serif" font-size="14.00">&#45;2 &#45;3 4</text>
</g>
</g>
</svg>
