<?xml version="1.0" encoding="UTF-8" standalone="no"?>
<!DOCTYPE svg PUBLIC "-//W3C//DTD SVG 1.1//EN"
 "http://www.w3.org/Graphics/SVG/1.1/DTD/svg11.dtd">
<!-- Generated by graphviz version 2.43.0 (0)
 -->
<!-- Title: ImplicationGraph Pages: 1 -->
<svg width="621pt" height="79pt"
 viewBox="0.00 0.00 621.37 79.00" xmlns="http://www.w3.org/2000/svg" xmlns:xlink="http://www.w3.org/1999/xlink">
<g id="graph0" class="graph" transform="scale(1 1) rotate(0) translate(4 75)">
<title>ImplicationGraph</title>
<polygon fill="white" stroke="transparent" points="-4,4 -4,-75 617.37,-75 617.37,4 -4,4"/>
<!-- n1 -->
<g id="node1" class="node">
<title>n1</title>
<ellipse fill="none" stroke="black" cx="31.85" cy="-18" rx="31.7" ry="18"/>
<text text-anchor="middle" x="31.85" y="-14.3" font-family="Times,serif" font-size="14.00">1@1</text>
</g>
<!-- n3 -->
<g id="node3" class="node">
<title>n3</title>
<ellipse fill="none" stroke="black" cx="159.54" cy="-49" rx="31.7" ry="18"/>
<text text-anchor="middle" x="159.54" y="-45.3" font-family="Times,serif" font-size="14.00">3@1</text>
</g>
<!-- n1&#45;&gt;n3 -->
<g id="edge1" class="edge">
<title>n1&#45;&gt;n3</title>
<path fill="none" stroke="black" d="M61.37,-25.03C78.81,-29.33 101.33,-34.89 120.3,-39.57"/>
<polygon fill="black" stroke="black" points="119.59,-43 130.13,-41.99 121.26,-36.2 119.59,-43"/>
<text text-anchor="middle" x="95.69" y="-39.8" font-family="Times,serif" font-size="14.00">3 &#45;4</text>
</g>
<!-- nk -->
<g id="node5" class="node">
<title>nk</title>
<ellipse fill="none" stroke="black" cx="582.17" cy="-18" rx="31.4" ry="18"/>
<text text-anchor="middle" x="582.17" y="-14.3" font-family="Times,serif" font-size="14.00">k@2</text>
</g>
<!-- n1&#45;&gt;nk -->
<g id="edge5" class="edge">
<title>n1&#45;&gt;nk</title>
<path fill="none" stroke="black" d="M62.17,-12.13C87.56,-7.57 125.32,-2 158.54,-2 158.54,-2 158.54,-2 438.13,-2 473.52,-2 513.52,-6.9 542.21,-11.27"/>
<polygon fill="black" stroke="black" points="541.82,-14.75 552.24,-12.85 542.91,-7.84 541.82,-14.75"/>
<text text-anchor="middle" x="293.84" y="-5.8" font-family="Times,serif" font-size="14.00">&#45;1 2 &#45;4</text>
</g>
<!-- n2 -->
<g id="node2" class="node">
<title>n2</title>
<ellipse fill="none" stroke="black" cx="293.84" cy="-53" rx="34.39" ry="18"/>
<text text-anchor="middle" x="293.84" y="-49.3" font-family="Times,serif" font-size="14.00">&#45;2@2</text>
</g>
<!-- n4 -->
<g id="node4" class="node">
<title>n4</title>
<ellipse fill="none" stroke="black" cx="437.13" cy="-50" rx="31.7" ry="18"/>
<text text-anchor="middle" x="437.13" y="-46.3" font-family="Times,serif" font-size="14.00">4@2</text>
</g>
<!-- n2&#45;&gt;n4 -->
<g id="edge3" class="edge">
<title>n2&#45;&gt;n4</title>
<path fill="none" stroke="black" d="M328.32,-52.29C348.38,-51.86 374.02,-51.32 395.27,-50.87"/>
<polygon fill="black" stroke="black" points="395.38,-54.37 405.3,-50.65 395.23,-47.37 395.38,-54.37"/>
<text text-anchor="middle" x="366.78" y="-54.8" font-family="Times,serif" font-size="14.00">&#45;1 2 4</text>
</g>
<!-- n3&#45;&gt;n2 -->
<g id="edge2" class="edge">
<title>n3&#45;&gt;n2</title>
<path fill="none" stroke="black" d="M191.56,-49.94C208.7,-50.46 230.27,-51.11 249.1,-51.68"/>
<polygon fill="black" stroke="black" points="249.13,-55.18 259.23,-51.98 249.34,-48.18 249.13,-55.18"/>
<text text-anchor="middle" x="225.39" y="-54.8" font-family="Times,serif" font-size="14.00">&#45;2 &#45;3</text>
</g>
<!-- n4&#45;&gt;nk -->
<g id="edge4" class="edge">
<title>n4&#45;&gt;nk</title>
<path fill="none" stroke="black" d="M467.08,-43.52C488.94,-38.63 519.13,-31.88 542.97,-26.55"/>
<polygon fill="black" stroke="black" points="543.76,-29.96 552.76,-24.36 542.24,-23.12 543.76,-29.96"/>
<text text-anchor="middle" x="509.98" y="-41.8" font-family="Times,serif" font-size="14.00">&#45;1 2 &#45;4</text>
</g>
</g>
</svg>
