<?xml version="1.0" encoding="UTF-8" standalone="no"?>
<!DOCTYPE svg PUBLIC "-//W3C//DTD SVG 1.1//EN"
 "http://www.w3.org/Graphics/SVG/1.1/DTD/svg11.dtd">
<!-- Generated by graphviz version 2.43.0 (0)
 -->
<!-- Title: ImplicationGraph Pages: 1 -->
<svg width="354pt" height="98pt"
 viewBox="0.00 0.00 354.48 98.00" xmlns="http://www.w3.org/2000/svg" xmlns:xlink="http://www.w3.org/1999/xlink">
<g id="graph0" class="graph" transform="scale(1 1) rotate(0) translate(4 94)">
<title>ImplicationGraph</title>
<polygon fill="white" stroke="transparent" points="-4,4 -4,-94 350.48,-94 350.48,4 -4,4"/>
<!-- n1 -->
<g id="node1" class="node">
<title>n1</title>
<ellipse fill="none" stroke="black" cx="34.45" cy="-45" rx="34.39" ry="18"/>
<text text-anchor="middle" x="34.45" y="-41.3" font-family="Times,serif" font-size="14.00">&#45;1@0</text>
</g>
<!-- n3 -->
<g id="node3" class="node">
<title>n3</title>
<ellipse fill="none" stroke="black" cx="177.74" cy="-72" rx="31.7" ry="18"/>
<text text-anchor="middle" x="177.74" y="-68.3" font-family="Times,serif" font-size="14.00">3@0</text>
</g>
<!-- n1&#45;&gt;n3 -->
<g id="edge1" class="edge">
<title>n1&#45;&gt;n3</title>
<path fill="none" stroke="black" d="M67.16,-51.06C87.81,-55.01 114.91,-60.19 137,-64.41"/>
<polygon fill="black" stroke="black" points="136.59,-67.89 147.07,-66.33 137.9,-61.02 136.59,-67.89"/>
<text text-anchor="middle" x="107.39" y="-65.8" font-family="Times,serif" font-size="14.00">&#45;1 2 4</text>
</g>
<!-- n4 -->
<g id="node4" class="node">
<title>n4</title>
<ellipse fill="none" stroke="black" cx="177.74" cy="-18" rx="31.7" ry="18"/>
<text text-anchor="middle" x="177.74" y="-14.3" font-family="Times,serif" font-size="14.00">4@0</text>
</g>
<!-- n1&#45;&gt;n4 -->
<g id="edge2" class="edge">
<title>n1&#45;&gt;n4</title>
<path fill="none" stroke="black" d="M67.16,-38.94C87.81,-34.99 114.91,-29.81 137,-25.59"/>
<polygon fill="black" stroke="black" points="137.9,-28.98 147.07,-23.67 136.59,-22.11 137.9,-28.98"/>
<text text-anchor="middle" x="107.39" y="-37.8" font-family="Times,serif" font-size="14.00">1 4</text>
</g>
<!-- n2 -->
<g id="node2" class="node">
<title>n2</title>
<ellipse fill="none" stroke="black" cx="312.04" cy="-18" rx="34.39" ry="18"/>
<text text-anchor="middle" x="312.04" y="-14.3" font-family="Times,serif" font-size="14.00">&#45;2@0</text>
</g>
<!-- n4&#45;&gt;n2 -->
<g id="edge3" class="edge">
<title>n4&#45;&gt;n2</title>
<path fill="none" stroke="black" d="M209.76,-18C226.9,-18 248.47,-18 267.3,-18"/>
<polygon fill="black" stroke="black" points="267.43,-21.5 277.43,-18 267.43,-14.5 267.43,-21.5"/>
<text text-anchor="middle" x="243.59" y="-21.8" font-family="Times,serif" font-size="14.00">&#45;2 &#45;4</text>
</g>
</g>
</svg>
