<?xml version="1.0" encoding="UTF-8" standalone="no"?>
<!DOCTYPE svg PUBLIC "-//W3C//DTD SVG 1.1//EN"
 "http://www.w3.org/Graphics/SVG/1.1/DTD/svg11.dtd">
<!-- Generated by graphviz version 2.43.0 (0)
 -->
<!-- Title: ImplicationGraph Pages: 1 -->
<svg width="477pt" height="120pt"
 viewBox="0.00 0.00 476.98 120.00" xmlns="http://www.w3.org/2000/svg" xmlns:xlink="http://www.w3.org/1999/xlink">
<g id="graph0" class="graph" transform="scale(1 1) rotate(0) translate(4 116)">
<title>ImplicationGraph</title>
<polygon fill="white" stroke="transparent" points="-4,4 -4,-116 472.98,-116 472.98,4 -4,4"/>
<!-- n1 -->
<g id="node1" class="node">
<title>n1</title>
<ellipse fill="none" stroke="black" cx="34.45" cy="-83" rx="31.7" ry="18"/>
<text text-anchor="middle" x="34.45" y="-79.3" font-family="Times,serif" font-size="14.00">1@6</text>
</g>
<!-- n2 -->
<g id="node2" class="node">
<title>n2</title>
<ellipse fill="none" stroke="black" cx="177.74" cy="-94" rx="31.7" ry="18"/>
<text text-anchor="middle" x="177.74" y="-90.3" font-family="Times,serif" font-size="14.00">2@6</text>
</g>
<!-- n1&#45;&gt;n2 -->
<g id="edge1" class="edge">
<title>n1&#45;&gt;n2</title>
<path fill="none" stroke="black" d="M66.11,-85.39C86.57,-86.98 113.7,-89.09 135.97,-90.83"/>
<polygon fill="black" stroke="black" points="135.9,-94.33 146.14,-91.62 136.44,-87.35 135.9,-94.33"/>
<text text-anchor="middle" x="107.39" y="-93.8" font-family="Times,serif" font-size="14.00">&#45;1 2</text>
</g>
<!-- n3 -->
<g id="node3" class="node">
<title>n3</title>
<ellipse fill="none" stroke="black" cx="177.74" cy="-40" rx="31.7" ry="18"/>
<text text-anchor="middle" x="177.74" y="-36.3" font-family="Times,serif" font-size="14.00">3@6</text>
</g>
<!-- n1&#45;&gt;n3 -->
<g id="edge2" class="edge">
<title>n1&#45;&gt;n3</title>
<path fill="none" stroke="black" d="M63.03,-74.61C84.81,-67.98 115.43,-58.66 139.41,-51.36"/>
<polygon fill="black" stroke="black" points="140.68,-54.63 149.23,-48.37 138.65,-47.93 140.68,-54.63"/>
<text text-anchor="middle" x="107.39" y="-69.8" font-family="Times,serif" font-size="14.00">&#45;1 3 5</text>
</g>
<!-- n4 -->
<g id="node4" class="node">
<title>n4</title>
<ellipse fill="none" stroke="black" cx="305.44" cy="-93" rx="31.7" ry="18"/>
<text text-anchor="middle" x="305.44" y="-89.3" font-family="Times,serif" font-size="14.00">4@6</text>
</g>
<!-- n2&#45;&gt;n4 -->
<g id="edge4" class="edge">
<title>n2&#45;&gt;n4</title>
<path fill="none" stroke="black" d="M209.81,-93.75C225.83,-93.63 245.58,-93.47 262.88,-93.33"/>
<polygon fill="black" stroke="black" points="263.31,-96.83 273.29,-93.25 263.26,-89.83 263.31,-96.83"/>
<text text-anchor="middle" x="241.59" y="-96.8" font-family="Times,serif" font-size="14.00">&#45;2 4</text>
</g>
<!-- nk -->
<g id="node6" class="node">
<title>nk</title>
<ellipse fill="none" stroke="black" cx="437.13" cy="-57" rx="31.7" ry="18"/>
<text text-anchor="middle" x="437.13" y="-53.3" font-family="Times,serif" font-size="14.00">κ@6</text>
</g>
<!-- n3&#45;&gt;nk -->
<g id="edge6" class="edge">
<title>n3&#45;&gt;nk</title>
<path fill="none" stroke="black" d="M209.53,-42.03C255.85,-45.09 343.5,-50.88 395.16,-54.29"/>
<polygon fill="black" stroke="black" points="395.09,-57.8 405.3,-54.96 395.56,-50.81 395.09,-57.8"/>
<text text-anchor="middle" x="305.44" y="-53.8" font-family="Times,serif" font-size="14.00">&#45;3 &#45;4</text>
</g>
<!-- n4&#45;&gt;nk -->
<g id="edge5" class="edge">
<title>n4&#45;&gt;nk</title>
<path fill="none" stroke="black" d="M334.26,-85.28C352.94,-80.09 377.78,-73.2 398.25,-67.51"/>
<polygon fill="black" stroke="black" points="399.21,-70.88 407.91,-64.83 397.33,-64.14 399.21,-70.88"/>
<text text-anchor="middle" x="371.28" y="-82.8" font-family="Times,serif" font-size="14.00">&#45;3 &#45;4</text>
</g>
<!-- n5 -->
<g id="node5" class="node">
<title>n5</title>
<ellipse fill="none" stroke="black" cx="34.45" cy="-18" rx="34.39" ry="18"/>
<text text-anchor="middle" x="34.45" y="-14.3" font-family="Times,serif" font-size="14.00">&#45;5@3</text>
</g>
<!-- n5&#45;&gt;n3 -->
<g id="edge3" class="edge">
<title>n5&#45;&gt;n3</title>
<path fill="none" stroke="black" d="M68.74,-15.22C86.48,-14.52 108.58,-14.92 127.89,-19 133.31,-20.15 138.87,-21.91 144.21,-23.94"/>
<polygon fill="black" stroke="black" points="142.93,-27.19 153.51,-27.79 145.62,-20.73 142.93,-27.19"/>
<text text-anchor="middle" x="107.39" y="-22.8" font-family="Times,serif" font-size="14.00">&#45;1 3 5</text>
</g>
</g>
</svg>
